# xmcd
#
# Track frame offsets:
#	182
#	12707
#	24932
#	37682
#	49157
#	61082
#	79635
#	96782
#	110852
#	130382
#	145532
#	157682
#	170620
#	179132
#	203082
#
# Disc length: 2877 seconds
# Revision: 4
# Processed by: cddbd v1.5.2PL0 Copyright (c) Steve Scherf et al.
# Submitted via: dBpowerAMP V12.0
#
DISCID=c00b3b0f
DTITLE=T-Bone Walker - T-Bone Blues
DYEAR=1955
DGENRE=Blues
TTITLE0=Papa Ain't Salty
TTITLE1=Why Not
TTITLE2=T-Bone Shuffle
TTITLE3=Play On Little Girl
TTITLE4=T-Bone Blues Special
TTITLE5=Mean Old World
TTITLE6=T-Bone Blues
TTITLE7=Call It Stormy Monday
TTITLE8=Blues For Marili
TTITLE9=Shufflin' The Blues
TTITLE10=Evenin'
TTITLE11=Two Bones And A Pick
TTITLE12=You Don't Know What You're Doing
TTITLE13=How Long Blues
TTITLE14=Blues Rock
EXTD=
EXTT0=
EXTT1=
EXTT2=
EXTT3=
EXTT4=
EXTT5=
EXTT6=
EXTT7=
EXTT8=
EXTT9=
EXTT10=
EXTT11=
EXTT12=
EXTT13=
EXTT14=
PLAYORDER=
